<?xml version="1.0" encoding="UTF-8"?><svg xmlns="http://www.w3.org/2000/svg" xmlns:xlink="http://www.w3.org/1999/xlink" width="1440" zoomAndPan="magnify" viewBox="0 0 1440 809.999993" height="809.999993" preserveAspectRatio="xMidYMid meet" version="1.0"><path fill="rgb(40.779114%, 51.368713%, 72.938538%)" d="M 270.859375 116.203125 C 270.859375 91.8125 283.015625 65.925781 275.535156 43.964844 C 267.867188 21.164062 241.867188 7.148438 227.558594 -11.824219 C 213.0625 -30.980469 207.078125 -58.921875 187.15625 -72.84375 C 167.425781 -86.582031 137.964844 -83.5 114.304688 -90.972656 C 91.390625 -98.078125 69.601562 -117.515625 44.257812 -117.515625 C 18.914062 -117.515625 -2.972656 -98.167969 -25.789062 -90.972656 C -49.453125 -83.59375 -79.003906 -86.675781 -98.738281 -72.84375 C -118.65625 -58.921875 -124.644531 -30.980469 -139.140625 -11.824219 C -153.542969 7.148438 -179.445312 21.164062 -187.207031 43.964844 C -194.597656 65.925781 -182.53125 91.8125 -182.53125 116.203125 C -182.53125 140.59375 -194.691406 166.476562 -187.207031 188.4375 C -179.539062 211.238281 -153.542969 225.257812 -139.230469 244.226562 C -124.738281 263.382812 -118.75 291.324219 -98.832031 305.25 C -79.097656 319.082031 -49.640625 315.996094 -25.882812 323.378906 C -2.972656 330.480469 18.820312 349.917969 44.164062 349.917969 C 69.507812 349.917969 91.390625 330.574219 114.210938 323.378906 C 137.871094 315.996094 167.425781 319.082031 187.15625 305.25 C 207.078125 291.324219 213.0625 263.382812 227.558594 244.226562 C 241.960938 225.257812 267.867188 211.238281 275.535156 188.4375 C 283.015625 166.382812 270.859375 140.5 270.859375 116.203125 Z M 270.859375 116.203125 " fill-opacity="1" fill-rule="nonzero"/><path fill="rgb(40.779114%, 51.368713%, 72.938538%)" d="M 1567.828125 698.839844 C 1567.828125 674.449219 1579.984375 648.566406 1572.503906 626.605469 C 1564.835938 603.800781 1538.835938 589.785156 1524.527344 570.816406 C 1510.03125 551.65625 1504.046875 523.714844 1484.125 509.792969 C 1464.394531 496.054688 1434.933594 499.140625 1411.273438 491.664062 C 1388.359375 484.5625 1366.570312 465.125 1341.226562 465.125 C 1315.882812 465.125 1293.996094 484.46875 1271.179688 491.664062 C 1247.515625 499.046875 1217.964844 495.960938 1198.230469 509.792969 C 1178.3125 523.714844 1172.324219 551.65625 1157.828125 570.816406 C 1143.429688 589.785156 1117.523438 603.800781 1109.761719 626.605469 C 1102.371094 648.566406 1114.4375 674.449219 1114.4375 698.839844 C 1114.4375 723.230469 1102.277344 749.117188 1109.761719 771.078125 C 1117.429688 793.878906 1143.429688 807.894531 1157.738281 826.867188 C 1172.230469 846.023438 1178.21875 873.964844 1198.136719 887.886719 C 1217.871094 901.71875 1247.328125 898.632812 1271.085938 906.015625 C 1293.996094 913.117188 1315.789062 932.554688 1341.132812 932.554688 C 1366.476562 932.554688 1388.359375 913.210938 1411.179688 906.015625 C 1434.839844 898.632812 1464.394531 901.71875 1484.125 887.886719 C 1504.046875 873.964844 1510.03125 846.023438 1524.527344 826.867188 C 1538.929688 807.894531 1564.835938 793.878906 1572.503906 771.078125 C 1579.984375 749.023438 1567.828125 723.136719 1567.828125 698.839844 Z M 1567.828125 698.839844 " fill-opacity="1" fill-rule="nonzero"/></svg>